<svg xmlns="http://www.w3.org/2000/svg" width="252" height="60.001" viewBox="0 0 252 60.001">
  <g id="ws_-_desktop_wordmark" data-name="ws - desktop wordmark" transform="translate(-5304 9864)">
    <path id="bck" d="M2,0H26a2,2,0,0,1,2,2V26a2,2,0,0,1-2,2H2a2,2,0,0,1-2-2V2A2,2,0,0,1,2,0Z" transform="translate(5368 -9864)" fill="#fff"/>
    <path id="bck-2" data-name="bck" d="M2,0H26a2,2,0,0,1,2,2V26a2,2,0,0,1-2,2H2a2,2,0,0,1-2-2V2A2,2,0,0,1,2,0Z" transform="translate(5336 -9831.999)" fill="#fff"/>
    <path id="bck-3" data-name="bck" d="M2,0H26a2,2,0,0,1,2,2V26a2,2,0,0,1-2,2H2a2,2,0,0,1-2-2V2A2,2,0,0,1,2,0Z" transform="translate(5400 -9831.999)" fill="#fff"/>
    <path id="bck-4" data-name="bck" d="M2,0H26a2,2,0,0,1,2,2V26a2,2,0,0,1-2,2H2a2,2,0,0,1-2-2V2A2,2,0,0,1,2,0Z" transform="translate(5432 -9831.999)" fill="#fff"/>
    <path id="bck-5" data-name="bck" d="M2,0H26a2,2,0,0,1,2,2V26a2,2,0,0,1-2,2H2a2,2,0,0,1-2-2V2A2,2,0,0,1,2,0Z" transform="translate(5464 -9831.999)" fill="#fff"/>
    <path id="bck-6" data-name="bck" d="M2,0H26a2,2,0,0,1,2,2V26a2,2,0,0,1-2,2H2a2,2,0,0,1-2-2V2A2,2,0,0,1,2,0Z" transform="translate(5496 -9831.999)" fill="#fff"/>
    <path id="bck-7" data-name="bck" d="M2,0H26a2,2,0,0,1,2,2V26a2,2,0,0,1-2,2H2a2,2,0,0,1-2-2V2A2,2,0,0,1,2,0Z" transform="translate(5528 -9831.999)" fill="#fff"/>
    <path id="bck-8" data-name="bck" d="M2,0H26a2,2,0,0,1,2,2V26a2,2,0,0,1-2,2H2a2,2,0,0,1-2-2V2A2,2,0,0,1,2,0Z" transform="translate(5304 -9831.999)" fill="#fff"/>
    <path id="bck-9" data-name="bck" d="M2,0H26a2,2,0,0,1,2,2V26a2,2,0,0,1-2,2H2a2,2,0,0,1-2-2V2A2,2,0,0,1,2,0Z" transform="translate(5368 -9831.999)" fill="#fff"/>
    <path id="bck-10" data-name="bck" d="M2,0H26a2,2,0,0,1,2,2V26a2,2,0,0,1-2,2H2a2,2,0,0,1-2-2V2A2,2,0,0,1,2,0Z" transform="translate(5400.001 -9864)" fill="#fff"/>
    <path id="bck-11" data-name="bck" d="M2,0H26a2,2,0,0,1,2,2V26a2,2,0,0,1-2,2H2a2,2,0,0,1-2-2V2A2,2,0,0,1,2,0Z" transform="translate(5400.001 -9864)" fill="#fff"/>
    <path id="bck-12" data-name="bck" d="M2,0H26a2,2,0,0,1,2,2V26a2,2,0,0,1-2,2H2a2,2,0,0,1-2-2V2A2,2,0,0,1,2,0Z" transform="translate(5464 -9864)" fill="#fff"/>
    <path id="Path_1171" data-name="Path 1171" d="M5.708,14.256H8.12l2.808-8.82h.036l2.808,8.82h2.5L20,1.512H17.156L15.014,9.9h-.036L12.332,1.512H9.722L7.058,9.684H7.022L4.988,1.512H1.928Z" transform="translate(5371.037 -9858.256)" fill="#1d2956"/>
    <path id="Path_1164" data-name="Path 1164" d="M19.532,2.2A5.761,5.761,0,0,0,15.626.864c-2.5,0-4.86,1.422-4.86,4.14,0,4.248,5.976,2.988,5.976,5.328,0,.9-1.026,1.332-1.944,1.332a3.122,3.122,0,0,1-2.448-1.206l-2,2.2a6.052,6.052,0,0,0,4.284,1.6c2.628,0,4.914-1.35,4.914-4.194,0-4.464-5.868-2.97-5.868-5.292,0-.954,1.1-1.314,1.89-1.314a2.719,2.719,0,0,1,2.034.846Z" transform="translate(5303.148 -9825.433)" fill="#1d2956"/>
    <path id="Path_1165" data-name="Path 1165" d="M20.666,10.242a4.389,4.389,0,0,0-3.114-1.17,4.6,4.6,0,1,0,0,9.18,4.389,4.389,0,0,0,3.114-1.17L18.884,15.21a1.721,1.721,0,0,1-1.332.666,2.046,2.046,0,0,1-2.16-2.214,2.046,2.046,0,0,1,2.16-2.214,1.668,1.668,0,0,1,1.332.666Z" transform="translate(5333.654 -9829.536)" fill="#1d2956"/>
    <path id="Path_1166" data-name="Path 1166" d="M14.582,18.036h2.7V14.382c0-1.746.252-2.934,2.3-2.934a4.16,4.16,0,0,1,1.152.18V9.162a3.55,3.55,0,0,0-.9-.09,2.673,2.673,0,0,0-2.52,1.62h-.036v-1.4h-2.7Z" transform="translate(5364.709 -9830.036)" fill="#1d2956"/>
    <path id="Path_1167" data-name="Path 1167" d="M17.3,18.036h2.484V13.59c0-2.916-.846-4.518-4-4.518a5.645,5.645,0,0,0-3.852,1.4l1.44,1.476a2.884,2.884,0,0,1,2.2-1.044A1.608,1.608,0,0,1,17.3,12.474c-2.25,0-5.922.054-5.922,3.078,0,1.764,1.476,2.7,3.114,2.7a3.153,3.153,0,0,0,2.772-1.314H17.3Zm0-3.834v.576c0,1.08-.99,1.638-2.052,1.638-.594,0-1.278-.306-1.278-.954,0-1.188,1.836-1.26,2.664-1.26Z" transform="translate(5398.312 -9829.536)" fill="#1d2956"/>
    <path id="Path_1168" data-name="Path 1168" d="M6.248,18.036h2.7V13.68c0-1.134.216-2.232,1.62-2.232,1.242,0,1.206,1.314,1.206,1.962v4.626h2.7V13.41c0-1.08.4-1.962,1.638-1.962.882,0,1.188.684,1.188,1.494v5.094H20V12.87c0-2.124-.72-3.8-3.1-3.8a2.844,2.844,0,0,0-2.772,1.566,2.744,2.744,0,0,0-2.7-1.566,2.837,2.837,0,0,0-2.556,1.4H8.84V9.288H6.248Z" transform="translate(5432.876 -9830.036)" fill="#1d2956"/>
    <path id="Path_1169" data-name="Path 1169" d="M11.072,13.392h2.484V12.24h.036a3.391,3.391,0,0,0,2.682,1.368,4.2,4.2,0,0,0,4.3-4.518c0-2.43-1.512-4.662-4-4.662A3.261,3.261,0,0,0,13.808,5.58h-.036v-5.8h-2.7Zm2.484-4.374A2.046,2.046,0,0,1,15.716,6.8a2.046,2.046,0,0,1,2.16,2.214,2.046,2.046,0,0,1-2.16,2.214A2.046,2.046,0,0,1,13.556,9.018Z" transform="translate(5462.463 -9824.892)" fill="#1d2956"/>
    <path id="Path_1170" data-name="Path 1170" d="M17.3,13.392H20V-.216H17.3Z" transform="translate(5491.35 -9825.392)" fill="#1d2956"/>
    <path id="Path_1175" data-name="Path 1175" d="M17.7,15.138A2.3,2.3,0,0,1,15.77,16.2a2.017,2.017,0,0,1-2.034-1.692H20v-.846c0-2.79-1.584-4.59-4.1-4.59a4.6,4.6,0,1,0,0,9.18,4.753,4.753,0,0,0,3.69-1.728Zm-3.96-2.466a1.8,1.8,0,0,1,1.908-1.656A1.618,1.618,0,0,1,17.3,12.672Z" transform="translate(5526.482 -9829.536)" fill="#1d2956"/>
    <path id="Path_1172" data-name="Path 1172" d="M10.28,13.662a4.565,4.565,0,0,0,4.86,4.59,4.6,4.6,0,1,0,0-9.18A4.565,4.565,0,0,0,10.28,13.662Zm2.7,0a2.046,2.046,0,0,1,2.16-2.214,2.046,2.046,0,0,1,2.16,2.214,2.046,2.046,0,0,1-2.16,2.214A2.046,2.046,0,0,1,12.98,13.662Z" transform="translate(5399.149 -9862.035)" fill="#1d2956"/>
    <path id="Path_1174" data-name="Path 1174" d="M19.424-.216h-2.7v5.8h-.036a3.261,3.261,0,0,0-2.772-1.152c-2.484,0-4,2.232-4,4.662a4.2,4.2,0,0,0,4.3,4.518A3.391,3.391,0,0,0,16.9,12.24h.036v1.152h2.484ZM16.94,9.018a2.046,2.046,0,0,1-2.16,2.214,2.046,2.046,0,0,1-2.16-2.214A2.046,2.046,0,0,1,14.78,6.8,2.046,2.046,0,0,1,16.94,9.018Z" transform="translate(5463.041 -9857.392)" fill="#1d2956"/>
    <path id="bck-13" data-name="bck" d="M2,0H26a2,2,0,0,1,2,2V26a2,2,0,0,1-2,2H2a2,2,0,0,1-2-2V2A2,2,0,0,1,2,0Z" transform="translate(5432 -9864)" fill="#fff"/>
    <path id="Path_1176" data-name="Path 1176" d="M14.582,18.036h2.7V14.382c0-1.746.252-2.934,2.3-2.934a4.16,4.16,0,0,1,1.152.18V9.162a3.55,3.55,0,0,0-.9-.09,2.673,2.673,0,0,0-2.52,1.62h-.036v-1.4h-2.7Z" transform="translate(5428.708 -9862.035)" fill="#1d2956"/>
  </g>
</svg>
